<svg width="1288" height="10" viewBox="0 0 1288 10" fill="none" xmlns="http://www.w3.org/2000/svg">
<circle cx="5" cy="5" r="5" transform="matrix(4.37114e-08 -1 -1 -4.37114e-08 784 10.0001)" fill="#DFF4F1"/>
<circle cx="5" cy="5" r="5" transform="matrix(4.37114e-08 -1 -1 -4.37114e-08 946 10.0001)" fill="#DFF4F1"/>
<circle cx="5" cy="5" r="5" transform="matrix(4.37114e-08 -1 -1 -4.37114e-08 1108 10.0001)" fill="#DFF4F1"/>
<circle cx="5" cy="5" r="5" transform="matrix(4.37114e-08 -1 -1 -4.37114e-08 1270 10.0001)" fill="#DFF4F1"/>
<circle cx="5" cy="5" r="5" transform="matrix(4.37114e-08 -1 -1 -4.37114e-08 640 10.0001)" fill="#DFF4F1"/>
<circle cx="5" cy="5" r="5" transform="matrix(4.37114e-08 -1 -1 -4.37114e-08 802 10.0001)" fill="#DFF4F1"/>
<circle cx="5" cy="5" r="5" transform="matrix(4.37114e-08 -1 -1 -4.37114e-08 964 10.0001)" fill="#DFF4F1"/>
<circle cx="5" cy="5" r="5" transform="matrix(4.37114e-08 -1 -1 -4.37114e-08 1126 10.0001)" fill="#DFF4F1"/>
<circle cx="5" cy="5" r="5" transform="matrix(4.37114e-08 -1 -1 -4.37114e-08 1288 10.0001)" fill="#DFF4F1"/>
<circle cx="5" cy="5" r="5" transform="matrix(4.37114e-08 -1 -1 -4.37114e-08 658 10.0001)" fill="#DFF4F1"/>
<circle cx="5" cy="5" r="5" transform="matrix(4.37114e-08 -1 -1 -4.37114e-08 820 10.0001)" fill="#DFF4F1"/>
<circle cx="5" cy="5" r="5" transform="matrix(4.37114e-08 -1 -1 -4.37114e-08 982 10.0001)" fill="#DFF4F1"/>
<circle cx="5" cy="5" r="5" transform="matrix(4.37114e-08 -1 -1 -4.37114e-08 1144 10.0001)" fill="#DFF4F1"/>
<circle cx="5" cy="5" r="5" transform="matrix(4.37114e-08 -1 -1 -4.37114e-08 676 10.0001)" fill="#DFF4F1"/>
<circle cx="5" cy="5" r="5" transform="matrix(4.37114e-08 -1 -1 -4.37114e-08 838 10.0001)" fill="#DFF4F1"/>
<circle cx="5" cy="5" r="5" transform="matrix(4.37114e-08 -1 -1 -4.37114e-08 1000 10.0001)" fill="#DFF4F1"/>
<circle cx="5" cy="5" r="5" transform="matrix(4.37114e-08 -1 -1 -4.37114e-08 1162 10.0001)" fill="#DFF4F1"/>
<circle cx="5" cy="5" r="5" transform="matrix(4.37114e-08 -1 -1 -4.37114e-08 694 10.0001)" fill="#DFF4F1"/>
<circle cx="5" cy="5" r="5" transform="matrix(4.37114e-08 -1 -1 -4.37114e-08 856 10.0001)" fill="#DFF4F1"/>
<circle cx="5" cy="5" r="5" transform="matrix(4.37114e-08 -1 -1 -4.37114e-08 1018 10.0001)" fill="#DFF4F1"/>
<circle cx="5" cy="5" r="5" transform="matrix(4.37114e-08 -1 -1 -4.37114e-08 1180 10.0001)" fill="#DFF4F1"/>
<circle cx="5" cy="5" r="5" transform="matrix(4.37114e-08 -1 -1 -4.37114e-08 712 10.0001)" fill="#DFF4F1"/>
<circle cx="5" cy="5" r="5" transform="matrix(4.37114e-08 -1 -1 -4.37114e-08 874 10.0001)" fill="#DFF4F1"/>
<circle cx="5" cy="5" r="5" transform="matrix(4.37114e-08 -1 -1 -4.37114e-08 1036 10.0001)" fill="#DFF4F1"/>
<circle cx="5" cy="5" r="5" transform="matrix(4.37114e-08 -1 -1 -4.37114e-08 1198 10.0001)" fill="#DFF4F1"/>
<circle cx="5" cy="5" r="5" transform="matrix(4.37114e-08 -1 -1 -4.37114e-08 730 10.0001)" fill="#DFF4F1"/>
<circle cx="5" cy="5" r="5" transform="matrix(4.37114e-08 -1 -1 -4.37114e-08 892 10.0001)" fill="#DFF4F1"/>
<circle cx="5" cy="5" r="5" transform="matrix(4.37114e-08 -1 -1 -4.37114e-08 1054 10.0001)" fill="#DFF4F1"/>
<circle cx="5" cy="5" r="5" transform="matrix(4.37114e-08 -1 -1 -4.37114e-08 1216 10.0001)" fill="#DFF4F1"/>
<circle cx="5" cy="5" r="5" transform="matrix(4.37114e-08 -1 -1 -4.37114e-08 748 10.0001)" fill="#DFF4F1"/>
<circle cx="5" cy="5" r="5" transform="matrix(4.37114e-08 -1 -1 -4.37114e-08 910 10.0001)" fill="#DFF4F1"/>
<circle cx="5" cy="5" r="5" transform="matrix(4.37114e-08 -1 -1 -4.37114e-08 1072 10.0001)" fill="#DFF4F1"/>
<circle cx="5" cy="5" r="5" transform="matrix(4.37114e-08 -1 -1 -4.37114e-08 1234 10.0001)" fill="#DFF4F1"/>
<circle cx="5" cy="5" r="5" transform="matrix(4.37114e-08 -1 -1 -4.37114e-08 766 10.0001)" fill="#DFF4F1"/>
<circle cx="5" cy="5" r="5" transform="matrix(4.37114e-08 -1 -1 -4.37114e-08 928 10.0001)" fill="#DFF4F1"/>
<circle cx="5" cy="5" r="5" transform="matrix(4.37114e-08 -1 -1 -4.37114e-08 1090 10.0001)" fill="#DFF4F1"/>
<circle cx="5" cy="5" r="5" transform="matrix(4.37114e-08 -1 -1 -4.37114e-08 1252 10.0001)" fill="#DFF4F1"/>
<circle cx="5" cy="5" r="5" transform="matrix(4.37114e-08 -1 -1 -4.37114e-08 622 10.0001)" fill="#DFF4F1"/>
<circle cx="5" cy="5" r="5" transform="matrix(4.37114e-08 -1 -1 -4.37114e-08 460 10.0001)" fill="#DFF4F1"/>
<circle cx="5" cy="5" r="5" transform="matrix(4.37114e-08 -1 -1 -4.37114e-08 298 10)" fill="#DFF4F1"/>
<circle cx="5" cy="5" r="5" transform="matrix(4.37114e-08 -1 -1 -4.37114e-08 136 10)" fill="#DFF4F1"/>
<circle cx="5" cy="5" r="5" transform="matrix(4.37114e-08 -1 -1 -4.37114e-08 478 10.0001)" fill="#DFF4F1"/>
<circle cx="5" cy="5" r="5" transform="matrix(4.37114e-08 -1 -1 -4.37114e-08 316 10)" fill="#DFF4F1"/>
<circle cx="5" cy="5" r="5" transform="matrix(4.37114e-08 -1 -1 -4.37114e-08 154 10)" fill="#DFF4F1"/>
<circle cx="5" cy="5" r="5" transform="matrix(4.37114e-08 -1 -1 -4.37114e-08 496 10.0001)" fill="#DFF4F1"/>
<circle cx="5" cy="5" r="5" transform="matrix(4.37114e-08 -1 -1 -4.37114e-08 334 10)" fill="#DFF4F1"/>
<circle cx="5" cy="5" r="5" transform="matrix(4.37114e-08 -1 -1 -4.37114e-08 172 10)" fill="#DFF4F1"/>
<circle cx="5" cy="5" r="5" transform="matrix(4.37114e-08 -1 -1 -4.37114e-08 10 10)" fill="#DFF4F1"/>
<circle cx="5" cy="5" r="5" transform="matrix(4.37114e-08 -1 -1 -4.37114e-08 514 10.0001)" fill="#DFF4F1"/>
<circle cx="5" cy="5" r="5" transform="matrix(4.37114e-08 -1 -1 -4.37114e-08 352 10)" fill="#DFF4F1"/>
<circle cx="5" cy="5" r="5" transform="matrix(4.37114e-08 -1 -1 -4.37114e-08 190 10)" fill="#DFF4F1"/>
<circle cx="5" cy="5" r="5" transform="matrix(4.37114e-08 -1 -1 -4.37114e-08 28 10)" fill="#DFF4F1"/>
<circle cx="5" cy="5" r="5" transform="matrix(4.37114e-08 -1 -1 -4.37114e-08 532 10.0001)" fill="#DFF4F1"/>
<circle cx="5" cy="5" r="5" transform="matrix(4.37114e-08 -1 -1 -4.37114e-08 370 10)" fill="#DFF4F1"/>
<circle cx="5" cy="5" r="5" transform="matrix(4.37114e-08 -1 -1 -4.37114e-08 208 10)" fill="#DFF4F1"/>
<circle cx="5" cy="5" r="5" transform="matrix(4.37114e-08 -1 -1 -4.37114e-08 46 10)" fill="#DFF4F1"/>
<circle cx="5" cy="5" r="5" transform="matrix(4.37114e-08 -1 -1 -4.37114e-08 550 10.0001)" fill="#DFF4F1"/>
<circle cx="5" cy="5" r="5" transform="matrix(4.37114e-08 -1 -1 -4.37114e-08 388 10)" fill="#DFF4F1"/>
<circle cx="5" cy="5" r="5" transform="matrix(4.37114e-08 -1 -1 -4.37114e-08 226 10)" fill="#DFF4F1"/>
<circle cx="5" cy="5" r="5" transform="matrix(4.37114e-08 -1 -1 -4.37114e-08 64 10)" fill="#DFF4F1"/>
<circle cx="5" cy="5" r="5" transform="matrix(4.37114e-08 -1 -1 -4.37114e-08 568 10.0001)" fill="#DFF4F1"/>
<circle cx="5" cy="5" r="5" transform="matrix(4.37114e-08 -1 -1 -4.37114e-08 406 10)" fill="#DFF4F1"/>
<circle cx="5" cy="5" r="5" transform="matrix(4.37114e-08 -1 -1 -4.37114e-08 244 10)" fill="#DFF4F1"/>
<circle cx="5" cy="5" r="5" transform="matrix(4.37114e-08 -1 -1 -4.37114e-08 82 10)" fill="#DFF4F1"/>
<circle cx="5" cy="5" r="5" transform="matrix(4.37114e-08 -1 -1 -4.37114e-08 586 10.0001)" fill="#DFF4F1"/>
<circle cx="5" cy="5" r="5" transform="matrix(4.37114e-08 -1 -1 -4.37114e-08 424 10)" fill="#DFF4F1"/>
<circle cx="5" cy="5" r="5" transform="matrix(4.37114e-08 -1 -1 -4.37114e-08 262 10)" fill="#DFF4F1"/>
<circle cx="5" cy="5" r="5" transform="matrix(4.37114e-08 -1 -1 -4.37114e-08 100 10)" fill="#DFF4F1"/>
<circle cx="5" cy="5" r="5" transform="matrix(4.37114e-08 -1 -1 -4.37114e-08 604 10.0001)" fill="#DFF4F1"/>
<circle cx="5" cy="5" r="5" transform="matrix(4.37114e-08 -1 -1 -4.37114e-08 442 10)" fill="#DFF4F1"/>
<circle cx="5" cy="5" r="5" transform="matrix(4.37114e-08 -1 -1 -4.37114e-08 280 10)" fill="#DFF4F1"/>
<circle cx="5" cy="5" r="5" transform="matrix(4.37114e-08 -1 -1 -4.37114e-08 118 10)" fill="#DFF4F1"/>
</svg>
